Coordinates
version=1
nRows=11
nColumns=36
inDegrees=yes

Units are S.I. units (second, meters, Newtons, ...)
If the header above contains a line with 'inDegrees', this indicates whether rotational values are in degrees (yes) or radians (no).

endheader
time	pelvis_tilt	pelvis_list	pelvis_rotation	pelvis_tx	pelvis_ty	pelvis_tz	hip_flexion_r	hip_adduction_r	hip_rotation_r	knee_angle_r	knee_angle_r_beta	ankle_angle_r	subtalar_angle_r	mtp_angle_r	hip_flexion_l	hip_adduction_l	hip_rotation_l	knee_angle_l	knee_angle_l_beta	ankle_angle_l	subtalar_angle_l	mtp_angle_l	lumbar_extension	lumbar_bending	lumbar_rotation	arm_flex_r	arm_add_r	arm_rot_r	elbow_flex_r	pro_sup_r	arm_flex_l	arm_add_l	arm_rot_l	elbow_flex_l	pro_sup_l
      0.00000000	      0.52099842	     -0.72508246	      4.88829705	     -0.22260242	      1.10668560	     -0.26918531	     24.49643184	      0.25410709	    -10.56368948	      7.32045201	      0.12776599	      1.04701173	     -4.34769702	     -4.01831937	    -21.53254879	     -1.98098662	     -9.70928244	     16.62395582	      0.29014276	      1.06605433	     10.61299987	     -4.01831937	    -14.11557632	     -2.65247874	     -6.65353234	    -16.77528046	     -3.93242556	     -4.89731010	     38.30299015	    108.05548131	     -6.53772710	     -7.39013780	    -10.35392052	     40.51742951	    104.83908207
      0.01000000	      0.48897596	     -0.93221034	      4.75895303	     -0.20889984	      1.10671712	     -0.26851230	     24.68357813	      0.41959506	    -10.58047341	      8.65130068	      0.15099368	     -0.05962784	     -4.38434875	     -4.05242778	    -20.87962258	     -2.46276744	     -9.98902847	     18.70346043	      0.32643697	     -0.66295162	      9.76106139	     -4.05242778	    -14.08406317	     -1.84532990	     -6.11494944	    -16.71545557	     -4.14885195	     -4.92785805	     38.08479123	    108.10073461	     -6.88738427	     -6.94434776	    -10.23638244	     40.42475019	    104.94340251
      0.02000000	      0.13214938	     -1.19835116	      4.53442628	     -0.19520698	      1.10646674	     -0.26783926	     25.27702794	      0.66076096	    -10.23635449	     10.12130335	      0.17665007	     -1.35221138	     -4.74093137	     -4.11015143	    -19.89980097	     -2.87401321	     -9.95731653	     20.70759737	      0.36141575	     -2.59276043	      8.37094256	     -4.11015143	    -13.63784842	     -0.96895658	     -5.63611074	    -16.64739292	     -4.43193807	     -5.07259685	     37.73219313	    108.13888102	     -7.37459253	     -6.51484237	    -10.08540206	     40.13823759	    105.09394886
      0.03000000	      0.03804865	     -1.34667138	      4.27286845	     -0.18183270	      1.10691371	     -0.26714402	     25.55552864	      0.83775861	     -9.79091325	     11.55550905	      0.20168168	     -2.25944342	     -5.22184229	     -4.16434662	    -19.06208756	     -3.16570839	     -9.87759757	     22.91380800	      0.39992139	     -4.56929200	      6.93173505	     -4.16434662	    -13.55713699	     -0.25678102	     -5.00979156	    -16.49103797	     -4.65464697	     -5.20429294	     37.48688716	    108.15827487	     -7.68290686	     -6.03264110	     -9.95775714	     40.03125147	    105.23715665
      0.04000000	      0.05714994	     -1.55504947	      3.92675532	     -0.16859734	      1.10785921	     -0.26629839	     25.71961425	      1.12347223	     -9.24339557	     13.05781116	      0.22790180	     -2.82422426	     -5.65136152	     -4.20441091	    -18.23458402	     -3.51426770	     -9.87803785	     25.24933385	      0.44068401	     -6.55003566	      5.50853532	     -4.20441091	    -13.64871044	      0.52329920	     -4.34980720	    -16.31384506	     -4.89324111	     -5.38013328	     37.32237130	    108.15740787	     -8.03828496	     -5.59156837	     -9.88811712	     40.02222602	    105.34591269
      0.05000000	      0.01623060	     -1.77397299	      3.49194283	     -0.15554831	      1.10910790	     -0.26538443	     25.92039739	      1.48284441	     -8.52558100	     14.53349662	      0.25365737	     -3.19255041	     -6.18835553	     -4.24749323	    -17.23471035	     -3.80847108	     -9.78984583	     27.69873291	      0.48343409	     -8.74805406	      3.73355245	     -4.24749323	    -13.68285002	      1.27720758	     -3.70703342	    -16.05047618	     -5.15097339	     -5.66985515	     37.27788562	    108.15353388	     -8.45632329	     -5.09549545	     -9.82682838	     40.11855955	    105.47551710
      0.06000000	     -0.03085333	     -1.89132085	      3.05166441	     -0.14276414	      1.11074583	     -0.26447036	     26.05557643	      1.78368591	     -7.66626136	     15.90009602	      0.27750903	     -3.47437996	     -6.81959365	     -4.30913222	    -16.12291222	     -3.92908641	     -9.46939454	     30.17231104	      0.52660617	    -11.20981833	      1.56086597	     -4.30913222	    -13.76404733	      1.89658831	     -3.13773241	    -15.77109760	     -5.35925558	     -6.11127253	     37.35317624	    108.16474911	     -8.93305888	     -4.67374803	     -9.80733244	     40.33773189	    105.66511605
      0.07000000	      0.11719773	     -2.05330886	      2.66888944	     -0.13000050	      1.11285535	     -0.26345256	     25.84612769	      2.13694282	     -7.11967118	     17.04724385	      0.29753053	     -3.35132389	     -7.21002972	     -4.34477770	    -15.12277115	     -4.21223026	     -9.34220624	     32.74800228	      0.57156046	    -13.30158544	      0.17058490	     -4.34477770	    -14.05236203	      2.54368849	     -2.68998079	    -15.44598393	     -5.60133589	     -6.43185441	     37.52697044	    108.18056724	     -9.43591767	     -4.30950198	     -9.69622434	     40.66199967	    105.80315274
      0.08000000	      0.04895474	     -2.04059705	      2.33527691	     -0.11752799	      1.11488172	     -0.26245518	     25.79622357	      2.32430980	     -6.46069284	     18.07010730	      0.31538287	     -3.33450415	     -7.67507713	     -4.41133144	    -13.82158846	     -4.19850920	     -8.81507753	     35.24032553	      0.61505971	    -15.91911166	     -2.16318187	     -4.41133144	    -14.09542487	      2.96022874	     -2.42509190	    -15.16335119	     -5.72303859	     -6.99294273	     37.86701011	    108.23336195	    -10.07564411	     -4.08026074	     -9.56047905	     41.16641390	    106.03355217
      0.09000000	      0.11029740	     -2.10158505	      2.16074511	     -0.10510199	      1.11714826	     -0.26145573	     25.44486869	      2.56174709	     -6.09540110	     18.79042559	      0.32795479	     -2.98989444	     -8.02642123	     -4.45241681	    -12.58025935	     -4.39839670	     -8.40422443	     37.77402721	      0.65928115	    -17.86458728	     -3.47745964	     -4.45241681	    -14.25993314	      3.44856593	     -2.34721210	    -14.86304580	     -5.86624768	     -7.32915526	     38.27144219	    108.28210623	    -10.68986648	     -3.92475870	     -9.24303405	     41.61799200	    106.20037093
      0.10000000	      0.43031218	     -1.93303031	      1.98232197	     -0.09291861	      1.11990646	     -0.26046097	     24.71375030	      2.59028657	     -5.67111932	     19.32557116	      0.33729485	     -2.81762693	     -8.15181841	     -4.46624163	    -11.67439905	     -4.29470801	     -7.80171246	     40.07435747	      0.69942948	    -18.94641821	     -3.97911279	     -4.46624163	    -14.72164050	      3.63811335	     -2.22985271	    -14.49167923	     -5.99874913	     -7.46809854	     38.55070954	    108.30209001	    -11.01671016	     -3.83408273	     -9.01059923	     41.79632964	    106.26726316
